<svg width="132" height="132" viewBox="0 0 132 132" fill="none" xmlns="http://www.w3.org/2000/svg">
<g id="reset">
<g id="Ellipse 2" filter="url(#filter0_dii_87_440)">
<circle cx="66" cy="52" r="37" fill="url(#paint0_linear_87_440)"/>
</g>
<path id="Vector" d="M77.4347 39.6222C71.4131 33.5328 61.9208 33.0933 55.3982 38.3045L53.9124 36.5048C53.4663 35.9645 52.5904 36.218 52.5019 36.9131L51.6178 43.8542C51.5539 44.3562 51.9662 44.7907 52.4709 44.7531L59.4298 44.2348C60.1155 44.1837 60.4215 43.3484 59.9311 42.8664L58.2109 41.1758C58.1715 41.137 58.1751 41.0726 58.2183 41.0385C60.6528 39.2616 63.6288 38.4107 66.6222 38.6349C69.6169 38.8592 72.4377 40.1453 74.5874 42.2674C76.7372 44.3896 78.0778 47.2115 78.3721 50.2362C78.6663 53.2609 77.8954 56.2933 76.1955 58.7989C74.4957 61.3044 71.9765 63.122 69.0823 63.9323C66.1881 64.7426 63.104 64.4939 60.3733 63.2297C57.7098 61.9967 55.5488 59.8747 54.2509 57.2225C54.1505 57.0173 53.9675 56.8596 53.742 56.7966L50.9406 56.0141C50.3458 55.8479 49.7734 56.4001 49.9837 57.0121C50.8062 59.4048 52.1552 61.5825 53.9335 63.3785C60.4225 69.9405 70.9457 69.9405 77.4347 63.3785C83.9218 56.8183 83.9218 46.1824 77.4347 39.6222Z" fill="white" stroke="white" stroke-width="0.6"/>
</g>
<defs>
<filter id="filter0_dii_87_440" x="0.466667" y="0.733334" width="131.067" height="131.067" filterUnits="userSpaceOnUse" color-interpolation-filters="sRGB">
<feFlood flood-opacity="0" result="BackgroundImageFix"/>
<feColorMatrix in="SourceAlpha" type="matrix" values="0 0 0 0 0 0 0 0 0 0 0 0 0 0 0 0 0 0 127 0" result="hardAlpha"/>
<feOffset dy="14.2667"/>
<feGaussianBlur stdDeviation="14.2667"/>
<feColorMatrix type="matrix" values="0 0 0 0 0.192157 0 0 0 0 0.126275 0 0 0 0 0.000784314 0 0 0 0.24 0"/>
<feBlend mode="normal" in2="BackgroundImageFix" result="effect1_dropShadow_87_440"/>
<feBlend mode="normal" in="SourceGraphic" in2="effect1_dropShadow_87_440" result="shape"/>
<feColorMatrix in="SourceAlpha" type="matrix" values="0 0 0 0 0 0 0 0 0 0 0 0 0 0 0 0 0 0 127 0" result="hardAlpha"/>
<feOffset dy="4.43852"/>
<feGaussianBlur stdDeviation="2.21926"/>
<feComposite in2="hardAlpha" operator="arithmetic" k2="-1" k3="1"/>
<feColorMatrix type="matrix" values="0 0 0 0 0.422014 0 0 0 0 0.602438 0 0 0 0 0.983333 0 0 0 1 0"/>
<feBlend mode="normal" in2="shape" result="effect2_innerShadow_87_440"/>
<feColorMatrix in="SourceAlpha" type="matrix" values="0 0 0 0 0 0 0 0 0 0 0 0 0 0 0 0 0 0 127 0" result="hardAlpha"/>
<feOffset dy="-4.43852"/>
<feGaussianBlur stdDeviation="2.21926"/>
<feComposite in2="hardAlpha" operator="arithmetic" k2="-1" k3="1"/>
<feColorMatrix type="matrix" values="0 0 0 0 0.290196 0 0 0 0 0.298039 0 0 0 0 0.866667 0 0 0 1 0"/>
<feBlend mode="normal" in2="effect2_innerShadow_87_440" result="effect3_innerShadow_87_440"/>
</filter>
<linearGradient id="paint0_linear_87_440" x1="66" y1="15" x2="66" y2="89" gradientUnits="userSpaceOnUse">
<stop stop-color="#3175E3"/>
<stop offset="1" stop-color="#9AB0FF"/>
</linearGradient>
</defs>
</svg>
