<?xml version="1.0" encoding="UTF-8" standalone="no"?>
<svg
   xmlns:dc="http://purl.org/dc/elements/1.1/"
   xmlns:cc="http://creativecommons.org/ns#"
   xmlns:rdf="http://www.w3.org/1999/02/22-rdf-syntax-ns#"
   xmlns:svg="http://www.w3.org/2000/svg"
   xmlns="http://www.w3.org/2000/svg"
   viewBox="0 0 7999.3467 1838.9067"
   height="1838.9067"
   width="7999.3467"
   xml:space="preserve"
   id="svg2"
   version="1.1"><metadata
     id="metadata8"><rdf:RDF><cc:Work
         rdf:about=""><dc:format>image/svg+xml</dc:format><dc:type
           rdf:resource="http://purl.org/dc/dcmitype/StillImage" /></cc:Work></rdf:RDF></metadata><defs
     id="defs6" /><g
     transform="matrix(1.3333333,0,0,-1.3333333,0,1838.9067)"
     id="g10"><g
       transform="scale(0.1)"
       id="g12"><g
         transform="scale(2.24934)"
         id="g14"><path
           id="path16"
           style="fill:#C2D1EC;fill-opacity:1;fill-rule:nonzero;stroke:none"
           d="m 15072,3663.72 h 1228 V 1340 h -1228 v 2323.72" /></g><g
         transform="scale(2.51891)"
         id="g18"><path
           id="path20"
           style="fill:#C2D1EC;fill-opacity:1;fill-rule:nonzero;stroke:none"
           d="M 15506.8,2498.9 H 16300 V 1155.66 h -793.2 V 2498.9" /></g><g
         transform="scale(3.01146)"
         id="g22"><path
           id="path24"
           style="fill:#C2D1EC;fill-opacity:1;fill-rule:nonzero;stroke:none"
           d="M 15410.7,3776.54 H 16300 V 805.257 h -889.3 V 3776.54" /></g><g
         transform="scale(2.99004)"
         id="g26"><path
           id="path28"
           style="fill:#C2D1EC;fill-opacity:1;fill-rule:nonzero;stroke:none"
           d="M 15637.9,4014.56 H 16300 V 3505.2 h -662.1 v 509.36" /></g><g
         transform="scale(3.48038)"
         id="g30"><path
           id="path32"
           style="fill:#C2D1EC;fill-opacity:1;fill-rule:nonzero;stroke:none"
           d="M 15689.8,2616.78 H 16300 V 578.989 h -610.2 V 2616.78" /></g><g
         transform="scale(3.46337)"
         id="g34"><path
           id="path36"
           style="fill:#C2D1EC;fill-opacity:1;fill-rule:nonzero;stroke:none"
           d="m 15846.8,2773.85 h 453.2 v -348.68 h -453.2 v 348.68" /></g><g
         transform="scale(1.15478)"
         id="g38"><path
           id="path40"
           style="fill:#C2D1EC;fill-opacity:1;fill-rule:nonzero;stroke:none"
           d="M 14058.7,7123.63 H 16300 V 3275.35 h -2241.3 v 3848.28" /></g><path
         id="path42"
         style="fill:#C2D1EC;fill-opacity:1;fill-rule:nonzero;stroke:none"
         d="m 10985.1,8660.66 h 2609.8 V 2738 h -2609.8 v 5922.66" /><path
         id="path44"
         style="fill:#C2D1EC;fill-opacity:1;fill-rule:nonzero;stroke:none"
         d="m 11301.9,9617.93 h 1975 V 6983.02 h -1975 v 2634.91" /><path
         id="path46"
         style="fill:#C2D1EC;fill-opacity:1;fill-rule:nonzero;stroke:none"
         d="m 11671.4,10906.5 h 1236 V 9145.42 h -1236 v 1761.08" /><path
         id="path48"
         style="fill:#C2D1EC;fill-opacity:1;fill-rule:nonzero;stroke:none"
         d="M 11781.8,11419.5 H 12797 V 9657.2 h -1015.2 v 1762.3" /><path
         id="path50"
         style="fill:#C2D1EC;fill-opacity:1;fill-rule:nonzero;stroke:none"
         d="m 11973.8,11797.5 h 631.2 v -1762.3 h -631.2 v 1762.3" /><path
         id="path52"
         style="fill:#C2D1EC;fill-opacity:1;fill-rule:nonzero;stroke:none"
         d="m 12103.4,12179.2 h 373.2 v -1762.3 h -373.2 v 1762.3" /><path
         id="path54"
         style="fill:#C2D1EC;fill-opacity:1;fill-rule:nonzero;stroke:none"
         d="m 12225.8,12806.3 h 128.4 V 11044 h -128.4 v 1762.3" /><g
         transform="scale(1.82827)"
         id="g56"><path
           id="path58"
           style="fill:#C2D1EC;fill-opacity:1;fill-rule:nonzero;stroke:none"
           d="M 14873.2,3757.71 H 16300 V 518.196 H 14873.2 V 3757.71" /></g><g
         transform="scale(1.80883)"
         id="g60"><path
           id="path62"
           style="fill:#C2D1EC;fill-opacity:1;fill-rule:nonzero;stroke:none"
           d="M 15208.1,4326.62 H 16300 V 2870.61 h -1091.9 v 1456.01" /></g><g
         transform="scale(1.78616)"
         id="g64"><path
           id="path66"
           style="fill:#C2D1EC;fill-opacity:1;fill-rule:nonzero;stroke:none"
           d="m 15608.1,5103.68 h 691.9 v -986.66 h -691.9 v 986.66" /></g><g
         transform="scale(1.77939)"
         id="g68"><path
           id="path70"
           style="fill:#C2D1EC;fill-opacity:1;fill-rule:nonzero;stroke:none"
           d="m 15729.5,5410.71 h 570.5 v -990.42 h -570.5 v 990.42" /></g><g
         transform="scale(1.76761)"
         id="g72"><path
           id="path74"
           style="fill:#C2D1EC;fill-opacity:1;fill-rule:nonzero;stroke:none"
           d="m 15942.9,5661.28 h 357.1 v -997.01 h -357.1 v 997.01" /></g><g
         transform="scale(1.75966)"
         id="g76"><path
           id="path78"
           style="fill:#C2D1EC;fill-opacity:1;fill-rule:nonzero;stroke:none"
           d="M 16088.6,5903.06 H 16300 V 4902.25 h -211.4 v 1000.81" /></g><g
         transform="scale(1.75223)"
         id="g80"><path
           id="path82"
           style="fill:#C2D1EC;fill-opacity:1;fill-rule:nonzero;stroke:none"
           d="m 16226,6286.01 h 74 V 5280.25 h -74 v 1005.76" /></g><g
         transform="scale(2.42542)"
         id="g84"><path
           id="path86"
           style="fill:#C2D1EC;fill-opacity:1;fill-rule:nonzero;stroke:none"
           d="M 15250.2,3910.81 H 16300 V 431.101 H 15250.2 V 3910.81" /></g><g
         transform="scale(2.41055)"
         id="g88"><path
           id="path90"
           style="fill:#C2D1EC;fill-opacity:1;fill-rule:nonzero;stroke:none"
           d="m 15444.8,4137.57 h 855.2 v -766.22 h -855.2 v 766.22" /></g><g
         transform="scale(2.40216)"
         id="g92"><path
           id="path94"
           style="fill:#C2D1EC;fill-opacity:1;fill-rule:nonzero;stroke:none"
           d="M 15554.8,4307.85 H 16300 V 4117.8 h -745.2 v 190.05" /></g><g
         transform="scale(2.35196)"
         id="g96"><path
           id="path98"
           style="fill:#C2D1EC;fill-opacity:1;fill-rule:nonzero;stroke:none"
           d="m 16235.7,5819.62 h 64.3 V 4201.51 h -64.3 v 1618.11" /></g><g
         transform="scale(2.35763)"
         id="g100"><path
           id="path102"
           style="fill:#C2D1EC;fill-opacity:1;fill-rule:nonzero;stroke:none"
           d="m 16156.5,4487.6 h 143.5 v -99.94 h -143.5 v 99.94" /></g><g
         transform="scale(2.35446)"
         id="g104"><path
           id="path106"
           style="fill:#C2D1EC;fill-opacity:1;fill-rule:nonzero;stroke:none"
           d="m 16201.1,4593.72 h 98.9 v -121.46 h -98.9 v 121.46" /></g><g
         transform="scale(2.71553)"
         id="g108"><path
           id="path110"
           style="fill:#C2D1EC;fill-opacity:1;fill-rule:nonzero;stroke:none"
           d="M 15435.7,3231.79 H 16300 V 1092.75 h -864.3 v 2139.04" /></g><g
         transform="scale(2.69897)"
         id="g112"><path
           id="path114"
           style="fill:#C2D1EC;fill-opacity:1;fill-rule:nonzero;stroke:none"
           d="m 15630.5,3403.04 h 669.5 v -573.4 h -669.5 v 573.4" /></g><g
         transform="scale(2.69168)"
         id="g116"><path
           id="path118"
           style="fill:#C2D1EC;fill-opacity:1;fill-rule:nonzero;stroke:none"
           d="m 15716.5,3529.43 h 583.5 v -141.8 h -583.5 v 141.8" /></g><g
         transform="scale(2.67983)"
         id="g120"><path
           id="path122"
           style="fill:#C2D1EC;fill-opacity:1;fill-rule:nonzero;stroke:none"
           d="m 15861.7,3584.89 h 438.3 v -94.8 h -438.3 v 94.8" /></g><g
         transform="scale(2.67202)"
         id="g124"><path
           id="path126"
           style="fill:#C2D1EC;fill-opacity:1;fill-rule:nonzero;stroke:none"
           d="m 15952.5,3715.69 h 347.5 v -130.44 h -347.5 v 130.44" /></g><g
         transform="scale(2.64715)"
         id="g128"><path
           id="path130"
           style="fill:#C2D1EC;fill-opacity:1;fill-rule:nonzero;stroke:none"
           d="m 16255.6,4221.64 h 44.4 v -751.98 h -44.4 v 751.98" /></g><g
         transform="scale(1.50341)"
         id="g132"><path
           id="path134"
           style="fill:#C2D1EC;fill-opacity:1;fill-rule:nonzero;stroke:none"
           d="M 14317.5,6853.72 H 16300 V 1235.86 h -1982.5 v 5617.86" /></g><g
         transform="scale(1.48236)"
         id="g136"><path
           id="path138"
           style="fill:#C2D1EC;fill-opacity:1;fill-rule:nonzero;stroke:none"
           d="M 14752.3,7351.76 H 16300 V 5833.41 h -1547.7 v 1518.35" /></g><g
         transform="scale(1.47316)"
         id="g140"><path
           id="path142"
           style="fill:#C2D1EC;fill-opacity:1;fill-rule:nonzero;stroke:none"
           d="M 14946.2,7708.41 H 16300 v -376.56 h -1353.8 v 376.56" /></g><g
         transform="scale(1.45807)"
         id="g144"><path
           id="path146"
           style="fill:#C2D1EC;fill-opacity:1;fill-rule:nonzero;stroke:none"
           d="M 15277.9,7895.08 H 16300 v -253.35 h -1022.1 v 253.35" /></g><g
         transform="scale(1.4482)"
         id="g148"><path
           id="path150"
           style="fill:#C2D1EC;fill-opacity:1;fill-rule:nonzero;stroke:none"
           d="M 15485.5,8272.59 H 16300 V 7922.6 h -814.5 v 349.99" /></g><g
         transform="scale(1.41662)"
         id="g152"><path
           id="path154"
           style="fill:#C2D1EC;fill-opacity:1;fill-rule:nonzero;stroke:none"
           d="m 16194.1,9735.71 h 105.9 v -2042.8 h -105.9 v 2042.8" /></g><path
         id="path156"
         style="fill:#C2D1EC;fill-opacity:1;fill-rule:nonzero;stroke:none"
         d="M 3489.32,10654.9 H 6651.06 V 2023.7 H 3489.32 v 8631.2" /><path
         id="path158"
         style="fill:#C2D1EC;fill-opacity:1;fill-rule:nonzero;stroke:none"
         d="m 4217.66,10933.5 h 1706.27 v -498.2 H 4217.66 v 498.2" /><path
         id="path160"
         style="fill:#C2D1EC;fill-opacity:1;fill-rule:nonzero;stroke:none"
         d="M 4103.66,11402.3 H 6037.9 v -555.9 H 4103.66 v 555.9" /><path
         id="path162"
         style="fill:#C2D1EC;fill-opacity:1;fill-rule:nonzero;stroke:none"
         d="m 4968.79,13439.6 h 203.99 V 11287 h -203.99 v 2152.6" /><g
         transform="scale(2.29645)"
         id="g164"><path
           id="path166"
           style="fill:#C2D1EC;fill-opacity:1;fill-rule:nonzero;stroke:none"
           d="M 15341.7,2543.24 H 16300 V 909.01 h -958.3 v 1634.23" /></g><g
         transform="scale(2.81845)"
         id="g168"><path
           id="path170"
           style="fill:#476abc;fill-opacity:1;fill-rule:nonzero;stroke:none"
           d="M 16056.9,1586.27 H 16300 V 962.729 h -243.1 v 623.541" /></g><g
         transform="scale(3.67899)"
         id="g172"><path
           id="path174"
           style="fill:#476abc;fill-opacity:1;fill-rule:nonzero;stroke:none"
           d="M 16300,975.73 V 676.844 h -2421.3 v 291.195 c 0,4.349 2.6,7.691 5.9,7.691 H 16300" /></g><g
         transform="scale(3.133)"
         id="g176"><path
           id="path178"
           style="fill:#476abc;fill-opacity:1;fill-rule:nonzero;stroke:none"
           d="M 16168.2,1799.53 H 16300 V 794.798 h -131.8 V 1799.53" /></g><g
         transform="scale(3.22796)"
         id="g180"><path
           id="path182"
           style="fill:#476abc;fill-opacity:1;fill-rule:nonzero;stroke:none"
           d="M 15817.9,1928.33 H 16300 V 771.417 h -482.1 V 1928.33" /></g><g
         transform="scale(3.20816)"
         id="g184"><path
           id="path186"
           style="fill:#476abc;fill-opacity:1;fill-rule:nonzero;stroke:none"
           d="m 16300,2163.25 v -562.71 l -305.2,180.94 v 562.71 l 305.2,-180.94" /></g><g
         transform="scale(3.18946)"
         id="g188"><path
           id="path190"
           style="fill:#476abc;fill-opacity:1;fill-rule:nonzero;stroke:none"
           d="m 16300,2347.93 v -214.7 l -116.3,68.48 v 214.71 l 116.3,-68.49" /></g><g
         transform="scale(3.34088)"
         id="g192"><path
           id="path194"
           style="fill:#476abc;fill-opacity:1;fill-rule:nonzero;stroke:none"
           d="M 15834.2,1662.21 H 16300 V 745.342 h -465.8 v 916.868" /></g><g
         transform="scale(3.36775)"
         id="g196"><path
           id="path198"
           style="fill:#476abc;fill-opacity:1;fill-rule:nonzero;stroke:none"
           d="M 16147.9,1415.36 H 16300 V 791.121 h -152.1 v 624.239" /></g><g
         transform="scale(3.44202)"
         id="g200"><path
           id="path202"
           style="fill:#476abc;fill-opacity:1;fill-rule:nonzero;stroke:none"
           d="M 16039.6,1597.32 H 16300 V 738.055 h -260.4 v 859.265" /></g><g
         transform="scale(3.43099)"
         id="g204"><path
           id="path206"
           style="fill:#476abc;fill-opacity:1;fill-rule:nonzero;stroke:none"
           d="m 16150.3,1864.3 h 149.7 v -541.2 h -149.7 v 541.2" /></g><g
         transform="scale(3.41965)"
         id="g208"><path
           id="path210"
           style="fill:#476abc;fill-opacity:1;fill-rule:nonzero;stroke:none"
           d="m 16250.9,1930.06 h 49.1 v -123.82 h -49.1 v 123.82" /></g><g
         transform="scale(3.55598)"
         id="g212"><path
           id="path214"
           style="fill:#476abc;fill-opacity:1;fill-rule:nonzero;stroke:none"
           d="M 15839.4,1591.7 H 16300 V 871.067 h -460.6 V 1591.7" /></g><g
         transform="scale(3.52506)"
         id="g216"><path
           id="path218"
           style="fill:#476abc;fill-opacity:1;fill-rule:nonzero;stroke:none"
           d="m 16095.1,1696.52 h 204.9 v -141 h -204.9 v 141" /></g><g
         transform="scale(3.51564)"
         id="g220"><path
           id="path222"
           style="fill:#476abc;fill-opacity:1;fill-rule:nonzero;stroke:none"
           d="m 16180.6,1756.92 h 119.4 v -81.68 h -119.4 v 81.68" /></g><g
         transform="scale(3.56555)"
         id="g224"><path
           id="path226"
           style="fill:#476abc;fill-opacity:1;fill-rule:nonzero;stroke:none"
           d="m 16210.8,1396.39 h 89.2 V 698.378 h -89.2 v 698.012" /></g><g
         transform="scale(3.65396)"
         id="g228"><path
           id="path230"
           style="fill:#476abc;fill-opacity:1;fill-rule:nonzero;stroke:none"
           d="m 16299,880.961 -365.2,30.241 v 334.858 h 36.8 v 146.78 l 65.4,69.52 h 264 l -1,-581.399" /></g><g
         transform="scale(2.99814)"
         id="g232"><path
           id="path234"
           style="fill:#476abc;fill-opacity:1;fill-rule:nonzero;stroke:none"
           d="m 15871,2376.19 h 429 V 945.955 h -429 V 2376.19" /></g><g
         transform="scale(2.86541)"
         id="g236"><path
           id="path238"
           style="fill:#476abc;fill-opacity:1;fill-rule:nonzero;stroke:none"
           d="M 15942.4,1833.53 H 16300 V 933.235 h -357.6 v 900.295" /></g><g
         transform="scale(2.8939)"
         id="g240"><path
           id="path242"
           style="fill:#476abc;fill-opacity:1;fill-rule:nonzero;stroke:none"
           d="m 16125,1347.72 h 175 V 926.189 h -175 v 421.531" /></g><g
         transform="scale(2.85267)"
         id="g244"><path
           id="path246"
           style="fill:#476abc;fill-opacity:1;fill-rule:nonzero;stroke:none"
           d="m 16122.9,2102.86 h 177.1 v -427.63 h -177.1 v 427.63" /></g><g
         transform="scale(2.92437)"
         id="g248"><path
           id="path250"
           style="fill:#476abc;fill-opacity:1;fill-rule:nonzero;stroke:none"
           d="M 16069.4,1263.59 H 16300 V 953.879 h -230.6 v 309.711" /></g><g
         transform="scale(3.02721)"
         id="g252"><path
           id="path254"
           style="fill:#476abc;fill-opacity:1;fill-rule:nonzero;stroke:none"
           d="M 16077.3,1245.8 H 16300 V 947.009 h -222.7 V 1245.8" /></g><g
         transform="scale(2.97988)"
         id="g256"><path
           id="path258"
           style="fill:#476abc;fill-opacity:1;fill-rule:nonzero;stroke:none"
           d="m 16068.4,2436.05 h 231.6 v -81.96 h -231.6 v 81.96" /></g><g
         transform="scale(2.98275)"
         id="g260"><path
           id="path262"
           style="fill:#476abc;fill-opacity:1;fill-rule:nonzero;stroke:none"
           d="m 16037.7,2513.12 h 262.3 v -93.82 h -262.3 v 93.82" /></g><g
         transform="scale(2.96126)"
         id="g264"><path
           id="path266"
           style="fill:#476abc;fill-opacity:1;fill-rule:nonzero;stroke:none"
           d="m 16271.6,2873.27 h 28.4 v -361.39 h -28.4 v 361.39" /></g><g
         transform="scale(2.78164)"
         id="g268"><path
           id="path270"
           style="fill:#476abc;fill-opacity:1;fill-rule:nonzero;stroke:none"
           d="M 15747.4,2250.09 H 16300 V 964.431 h -552.6 V 2250.09" /></g><g
         transform="scale(2.76625)"
         id="g272"><path
           id="path274"
           style="fill:#476abc;fill-opacity:1;fill-rule:nonzero;stroke:none"
           d="m 15950.4,2454.26 v -480.03 l 349.6,153.51 v 480.47 l -349.6,-153.95" /></g><g
         transform="scale(2.74785)"
         id="g276"><path
           id="path278"
           style="fill:#476abc;fill-opacity:1;fill-rule:nonzero;stroke:none"
           d="m 16166.4,2617.19 v -184.01 l 133.6,58.95 v 184.02 l -133.6,-58.96" /></g><g
         transform="scale(2.61799)"
         id="g280"><path
           id="path282"
           style="fill:#476abc;fill-opacity:1;fill-rule:nonzero;stroke:none"
           d="M 15808.7,2672.01 H 16300 V 1034.57 h -491.3 v 1637.44" /></g><g
         transform="scale(2.59974)"
         id="g284"><path
           id="path286"
           style="fill:#476abc;fill-opacity:1;fill-rule:nonzero;stroke:none"
           d="m 16034.6,2743.17 h 265.4 v -94.42 h -265.4 v 94.42" /></g><g
         transform="scale(2.60261)"
         id="g288"><path
           id="path290"
           style="fill:#476abc;fill-opacity:1;fill-rule:nonzero;stroke:none"
           d="m 15998.9,2830.2 h 301.1 v -107.04 h -301.1 v 107.04" /></g><g
         transform="scale(2.58112)"
         id="g292"><path
           id="path294"
           style="fill:#476abc;fill-opacity:1;fill-rule:nonzero;stroke:none"
           d="m 16267.5,3246.03 h 32.5 v -414.61 h -32.5 v 414.61" /></g><g
         transform="scale(2.59525)"
         id="g296"><path
           id="path298"
           style="fill:#476abc;fill-opacity:1;fill-rule:nonzero;stroke:none"
           d="m 16090.1,2912.95 h 209.9 v -107.83 h -209.9 v 107.83" /></g><g
         transform="scale(2.44736)"
         id="g300"><path
           id="path302"
           style="fill:#476abc;fill-opacity:1;fill-rule:nonzero;stroke:none"
           d="M 15828.3,2214.43 H 16300 V 1106.21 h -471.7 v 1108.22" /></g><g
         transform="scale(2.30234)"
         id="g304"><path
           id="path306"
           style="fill:#476abc;fill-opacity:1;fill-rule:nonzero;stroke:none"
           d="m 15826.7,1672.67 h 473.3 v -456.82 h -473.3 v 456.82" /></g><g
         transform="scale(2.24934)"
         id="g308"><path
           id="path310"
           style="fill:#476abc;fill-opacity:1;fill-rule:nonzero;stroke:none"
           d="m 15991.7,1872.5 h 308.3 v -628 h -308.3 v 628" /></g><g
         transform="scale(2.20907)"
         id="g312"><path
           id="path314"
           style="fill:#476abc;fill-opacity:1;fill-rule:nonzero;stroke:none"
           d="m 15938.8,1691.07 h 361.2 v -407.23 h -361.2 v 407.23" /></g><g
         transform="scale(2.1596)"
         id="g316"><path
           id="path318"
           style="fill:#476abc;fill-opacity:1;fill-rule:nonzero;stroke:none"
           d="M 15893.3,1950.31 H 16300 V 1307.6 h -406.7 v 642.71" /></g><g
         transform="scale(2.11514)"
         id="g320"><path
           id="path322"
           style="fill:#476abc;fill-opacity:1;fill-rule:nonzero;stroke:none"
           d="m 15780.4,2232.67 h 519.6 v -945.76 h -519.6 v 945.76" /></g><g
         transform="scale(2.0508)"
         id="g324"><path
           id="path326"
           style="fill:#476abc;fill-opacity:1;fill-rule:nonzero;stroke:none"
           d="M 15562.8,3750.9 H 16300 V 1283.01 h -737.2 V 3750.9" /></g><g
         transform="scale(2.03873)"
         id="g328"><path
           id="path330"
           style="fill:#476abc;fill-opacity:1;fill-rule:nonzero;stroke:none"
           d="m 15752.1,3948.29 h 547.9 v -422.58 h -547.9 v 422.58" /></g><g
         transform="scale(2.02975)"
         id="g332"><path
           id="path334"
           style="fill:#476abc;fill-opacity:1;fill-rule:nonzero;stroke:none"
           d="M 15893.3,4168.32 H 16300 V 3854.5 h -406.7 v 313.82" /></g><g
         transform="scale(2.00707)"
         id="g336"><path
           id="path338"
           style="fill:#476abc;fill-opacity:1;fill-rule:nonzero;stroke:none"
           d="m 16257,4590.84 h 43 v -533.2 h -43 v 533.2" /></g><g
         transform="scale(3.11511)"
         id="g340"><path
           id="path342"
           style="fill:#476abc;fill-opacity:1;fill-rule:nonzero;stroke:none"
           d="M 16070.8,1574.28 H 16300 V 844.657 h -229.2 v 729.623" /></g><g
         transform="scale(3.67899)"
         id="g344"><path
           id="path346"
           style="fill:#476abc;fill-opacity:1;fill-rule:nonzero;stroke:none"
           d="M 8586.87,759.883 H 16300 V 369.613 H 8586.87 v 390.27" /></g><g
         transform="scale(3.09192)"
         id="g348"><path
           id="path350"
           style="fill:#476abc;fill-opacity:1;fill-rule:nonzero;stroke:none"
           d="M 15913.1,2379.53 H 16300 V 597.363 h -386.9 V 2379.53" /></g><g
         transform="scale(3.08493)"
         id="g352"><path
           id="path354"
           style="fill:#476abc;fill-opacity:1;fill-rule:nonzero;stroke:none"
           d="M 15986.1,2488.36 H 16300 V 2097.7 h -313.9 v 390.66" /></g><g
         transform="scale(3.08095)"
         id="g356"><path
           id="path358"
           style="fill:#476abc;fill-opacity:1;fill-rule:nonzero;stroke:none"
           d="m 16027,2570.84 h 273 v -96.8 h -273 v 96.8" /></g><g
         transform="scale(3.0574)"
         id="g360"><path
           id="path362"
           style="fill:#476abc;fill-opacity:1;fill-rule:nonzero;stroke:none"
           d="m 16276.8,3303.94 h 23.2 v -812.85 h -23.2 v 812.85" /></g><g
         transform="scale(3.06005)"
         id="g364"><path
           id="path366"
           style="fill:#476abc;fill-opacity:1;fill-rule:nonzero;stroke:none"
           d="m 16248.2,2638.14 h 51.8 v -50.54 h -51.8 v 50.54" /></g><g
         transform="scale(3.05857)"
         id="g368"><path
           id="path370"
           style="fill:#476abc;fill-opacity:1;fill-rule:nonzero;stroke:none"
           d="m 16264.3,2689.56 h 35.7 v -60.99 h -35.7 v 60.99" /></g><g
         transform="scale(2.3619)"
         id="g372"><path
           id="path374"
           style="fill:#476abc;fill-opacity:1;fill-rule:nonzero;stroke:none"
           d="M 15811.3,1731.3 H 16300 V 862.529 h -488.7 V 1731.3" /></g><g
         transform="scale(2.39737)"
         id="g376"><path
           id="path378"
           style="fill:#476abc;fill-opacity:1;fill-rule:nonzero;stroke:none"
           d="m 15818,1899.7 h 482 V 768.383 h -482 V 1899.7" /></g><g
         transform="scale(2.49307)"
         id="g380"><path
           id="path382"
           style="fill:#476abc;fill-opacity:1;fill-rule:nonzero;stroke:none"
           d="M 15836.5,1780.01 H 16300 V 692.118 h -463.5 V 1780.01" /></g><g
         transform="scale(2.53996)"
         id="g384"><path
           id="path386"
           style="fill:#476abc;fill-opacity:1;fill-rule:nonzero;stroke:none"
           d="M 15845.1,1491.04 H 16300 V 679.341 h -454.9 v 811.699" /></g><g
         transform="scale(2.55609)"
         id="g388"><path
           id="path390"
           style="fill:#476abc;fill-opacity:1;fill-rule:nonzero;stroke:none"
           d="M 15847.9,1254.07 H 16300 V 567.509 h -452.1 v 686.561" /></g><g
         transform="scale(2.67519)"
         id="g392"><path
           id="path394"
           style="fill:#476abc;fill-opacity:1;fill-rule:nonzero;stroke:none"
           d="M 15868.1,1664.8 H 16300 V 650.945 h -431.9 V 1664.8" /></g><g
         transform="scale(2.73063)"
         id="g396"><path
           id="path398"
           style="fill:#476abc;fill-opacity:1;fill-rule:nonzero;stroke:none"
           d="m 15876.8,1326.73 h 423.2 v -646.3 h -423.2 v 646.3" /></g><g
         transform="scale(2.24934)"
         id="g400"><path
           id="path402"
           style="fill:#476abc;fill-opacity:1;fill-rule:nonzero;stroke:none"
           d="M 15265.1,1340 H 16300 V 983.178 H 15265.1 V 1340" /></g><g
         transform="scale(2.16652)"
         id="g404"><path
           id="path406"
           style="fill:#476abc;fill-opacity:1;fill-rule:nonzero;stroke:none"
           d="m 16212.5,1817.75 h 87.5 v -611.76 h -87.5 v 611.76" /></g><g
         transform="scale(3.10583)"
         id="g408"><path
           id="path410"
           style="fill:#476abc;fill-opacity:1;fill-rule:nonzero;stroke:none"
           d="M 15187.7,1096.52 H 16300 V 746.015 h -1112.3 v 350.505" /></g><g
         transform="scale(2.00604)"
         id="g412"><path
           id="path414"
           style="fill:#476abc;fill-opacity:1;fill-rule:nonzero;stroke:none"
           d="M 949.257,4344.21 H 1062.31 V 2166.28 h 84.33 v 1468.88 h 516.79 v -523.69 h 425.89 v -600.76 h 377.43 v 1471.32 h 126.8 v 176.2 h 55.03 v 133.36 h 91.51 v 47.72 h 56.83 v 137.65 h 187.82 v 534.08 h 56.83 v -534.08 h 187.81 v -137.65 h 56.83 v -47.72 h 90.91 v -133.36 h 54.43 v -176.2 h 126.81 V 2166.28 h 547.31 v 1125.06 h 144.15 v 154.78 h 374.43 v -154.78 h 143.56 V 2166.28 h 232.08 l -9.57,1941.78 1012.04,-277.13 V 2166.28 h 1007.91 v 1514.14 h 183 v 244.11 l 172.28,61.78 v 125.42 l 209.96,74.63 v -125.4 l 172.23,61.77 v -442.31 h 143.57 v -828.33 h 195.61 v 362.16 h 178.26 v 345.04 h 290.67 v -345.04 h 118.44 v -627.07 h 266.15 v -420.9 h 88.53 v 471.68 h 196.8 v -471.68 h 554.48 v 1399.14 h 171.08 v 47.09 h -26.32 v 145.62 h 199.79 v 526.13 h 47.9 v -526.13 h 200.9 v -145.62 h -26.9 v -47.09 h 170.5 V 2166.28 h 81.3 v 885.24 h 408.5 v -693.75 h 17.4 v 183.53 h 146 v 305.28 h 145.3 v 316.9 l 174,-44.05 v 89.32 l 212.4,-52.62 v -89.92 l 175.3,-44.06 v -175.57 h 184.8 v -403.16 h 162.7 v 909.71 h 892.4 v -364.62 h 251.2 v -545.09 h 180.1 v 244.09 h 116.6 v 222.69 h 92.1 v 49.56 h 96.3 v -49.56 h 105.9 v -222.69 h 103.5 v -244.09 h 125.6 v 447.2 h 235.6 v 96.67 h 85.6 v 59.33 h 240.4 v -59.33 h 88.6 v -96.67 h 288.2 v -206.16 h 89.8 v -241.04 h 59.8 v 445.37 h 76.6 v 248.38 l 136.9,118.68 h 552.7 l -1.8,-812.43 h 235.7 V 2130.8 h 23.3 V 806.314 H 349.316 V 652.729 H 247.625 V 618.483 H 32.295 v 187.831 617.286 707.2 h 162.7 v 2213.41 h 113.647 v 165.18 h 83.737 v 190.26 h 211.745 v 349.33 h 49.047 v -349.33 h 211.745 v -190.26 h 84.341 v -165.18" /></g><g
         transform="scale(3.68067)"
         id="g416"><path
           id="path418"
           style="fill:#27417a;fill-opacity:1;fill-rule:nonzero;stroke:none"
           d="m 15754,1624.79 h -108.3 v -77.68 h -32.6 v -102.03 h -76.2 v -415.13 h -137.6 v 312.43 h -110.9 v 70.36 h -110.8 v -70.36 h -125.8 v -312.43 h -115.4 v 678.54 h -210.9 v 167.05 h -207 v -167.05 h -211 v -258.75 h -424.4 l -114.5,-88.02 v -185.05 h -62.9 V 844.248 h -145.4 v 333.412 h -238.9 v 72.36 h -73.7 v 43.68 h -199.2 v -43.68 h -71.1 v -72.36 h -196.2 V 844.248 h -104.3 v 182.032 h -85.5 v 165.73 h -88.3 v 37.01 h -79.9 v -37.01 h -76.6 v -165.73 h -96.5 V 844.248 h -148.9 v 405.772 h -209 v 272.41 h -740.7 V 844.248 h -135 v 300.412 h -154.1 v 130.7 l -144.1,32.68 v 67.02 l -177.4,40.01 v -66.69 l -144.1,32.68 v -236.4 h -121.3 V 916.925 h -119.9 V 779.884 h -62.3 V 619.18 h -237.63 v 296.739 h -53.8 V 1081.3 l -94.87,78.69 h -383.71 l 0.98,-540.81 H 9269.5 V 808.222 H 9099.99 V 746.548 H 8965.34 V 669.524 H 8863.97 V 881.578 H 8691.5 v 128.052 h -58.68 v 49.34 h -59.34 v 39.34 h -166.57 v -39.34 h -61.62 v -49.34 h -66.51 V 619.18 h -58 V 918.582 H 7808.05 V 619.18 h -52.16 V 911.925 H 7494.44 V 1033.96 H 7156.05 V 706.202 h -61.62 v 335.428 h -493.9 V 706.202 h -69.74 v 437.118 h -79.55 v 55.35 h -73.69 v 44.35 h -199.2 v -44.35 h -71.05 v -55.35 h -70.42 V 706.202 h -91.94 v 293.071 h -142.8 V 706.202 h -63.55 v 106.692 h -155.18 v 86.697 h -161.36 v 68.683 h -140.84 l 0.97,343.766 h -459.31 l -114.11,-88.36 v -185.06 h -63.91 V 706.202 h -283.94 v 179.723 h -74.66 V 1039.96 H 4047.3 v 71.68 h -74.01 v 44.35 h -199.17 v -44.35 h -70.75 v -71.68 H 3506.8 V 706.202 h -104.33 v 181.706 h -85.42 V 1054.3 h -88.35 v 36.67 h -79.52 v -36.67 h -76.94 V 887.908 h -96.18 V 706.202 h -149.3 v 406.108 h -208.65 v 271.75 h -741 V 706.202 h -134.64 v 300.408 h -154.2 v 131.05 l -144.09,32.33 v 67.36 l -177.67,40.01 v -67.02 l -144.09,32.68 V 1006.61 H 1001.47 V 696.53 H 774.252 v 1677.15 h -124.86 -67.479 v 209.4 h -77.916 v 284.75 H 387.288 v 282.41 H 358.6 V 2867.83 H 241.893 v -284.75 h -77.915 v -209.4 H 96.1674 L 0,2373.68 V 0 h 751.756 22.496 13533.248 126.5 494.9 7.5 600.5 v 0 h 583.8 71.1 108.2 v 1171.66 h -108.2 v 273.42 h -75.9 v 102.03 h -32.7 v 77.68 H 15975 v 80.36 h -93.6 v 336.77 h -33.8 v -336.77 h -93.6 v -80.36" /></g></g></g></svg>